<svg xmlns="http://www.w3.org/2000/svg" width="35.963" height="22.336" viewBox="0 0 35.963 22.336">
  <g id="anvil" transform="translate(0.001 -194)">
    <path id="Path_64" data-name="Path 64" d="M141.13,448.02H122.48a1.053,1.053,0,0,0-1.054,1.054v2.387a1.054,1.054,0,0,0,1.054,1.054h18.65a1.054,1.054,0,0,0,1.054-1.054v-2.387A1.053,1.053,0,0,0,141.13,448.02Zm0,0" transform="translate(-112.898 -236.177)" fill="#8b8b8b"/>
    <path id="Path_65" data-name="Path 65" d="M121.054,230.429h1.34V222h-1.34A1.054,1.054,0,0,0,120,223.054v6.322A1.054,1.054,0,0,0,121.054,230.429Zm0,0" transform="translate(-111.572 -26.033)" fill="#8b8b8b"/>
    <path id="Path_66" data-name="Path 66" d="M.124,248.557a1.053,1.053,0,0,0,.052,1.082L.415,250a10.042,10.042,0,0,0,5.906,4.27V248H1.053a1.054,1.054,0,0,0-.929.556Zm0,0" transform="translate(0 -50.207)" fill="#8b8b8b"/>
    <path id="Path_67" data-name="Path 67" d="M206.8,194.309a1.053,1.053,0,0,0-.745-.309H185.131a1.054,1.054,0,0,0-1.054,1.054v8.46h12.68c1.169-2.433,4.132-4.177,7.541-4.177a10.058,10.058,0,0,1,1.591.127,1.053,1.053,0,0,0,1.221-1.04v-3.37a1.054,1.054,0,0,0-.309-.745Zm0,0" transform="translate(-171.149 0)" fill="#8b8b8b"/>
    <path id="Path_68" data-name="Path 68" d="M173.319,359.47h0c0-.011,0-.021,0-.032H161.143c0,.143-.008.254-.011.292a5.462,5.462,0,0,1-1.694,3.822h15.541a5.654,5.654,0,0,1-1.66-4.083Zm0,0" transform="translate(-148.24 -153.817)" fill="#8b8b8b"/>
  </g>
</svg>
