<svg xmlns="http://www.w3.org/2000/svg" width="22.309" height="35.713" viewBox="0 0 22.309 35.713">
  <g id="beverage" transform="translate(-0.501 0.001)">
    <path id="Path_71" data-name="Path 71" d="M25.675,289.467a1.3,1.3,0,0,0,1.29,1.145h12.78a1.3,1.3,0,0,0,1.29-1.145l1.848-15.455H23.828Zm0,0" transform="translate(-21.701 -254.9)" fill="#699a9a"/>
    <path id="Path_72" data-name="Path 72" d="M208.847,92.735a1.6,1.6,0,0,0-1.584-1.6,9.668,9.668,0,0,0-2.773-6.04,9.234,9.234,0,0,0-2.838-1.911L200.488,94.4h8.359Zm0,0" transform="translate(-186.038 -77.386)" fill="#699a9a"/>
    <path id="Path_73" data-name="Path 73" d="M13.575,71.858a10.293,10.293,0,0,0-1.92-.179,9.575,9.575,0,0,0-6.8,2.713,9.667,9.667,0,0,0-2.773,6.04A1.6,1.6,0,0,0,.5,82.03V83.7H12.346Zm0,0" transform="translate(0 -66.681)" fill="#699a9a"/>
    <path id="Path_74" data-name="Path 74" d="M190.332,2.381l2.24.615a1.046,1.046,0,0,0,.554-2.018L189.7.037a1.046,1.046,0,0,0-1.318.9l-.44,4.24a9.706,9.706,0,0,1,2.039.624Zm0,0" transform="translate(-174.363 0)" fill="#699a9a"/>
  </g>
</svg>
