<svg xmlns="http://www.w3.org/2000/svg" width="34.834" height="30.303" viewBox="0 0 34.834 30.303">
  <g id="casual-t-shirt-" transform="translate(0 -19.219)">
    <path id="Path_75" data-name="Path 75" d="M123.215,26.282a3.444,3.444,0,0,0,3.28-2.377,13.842,13.842,0,0,1-6.561,0A3.443,3.443,0,0,0,123.215,26.282Z" transform="translate(-105.798 -4.134)" fill="#5b27c5"/>
    <path id="Path_76" data-name="Path 76" d="M34.79,23.889a.8.8,0,0,0-.415-.457l-6.641-3.066a32.117,32.117,0,0,0-4.305-1.133.792.792,0,0,0-.152-.015.78.78,0,0,0-.762.613,5.224,5.224,0,0,1-10.2,0,.781.781,0,0,0-.762-.613.792.792,0,0,0-.152.015A32.24,32.24,0,0,0,7.1,20.367L.458,23.432a.781.781,0,0,0-.414.457.775.775,0,0,0,.042.615l2.883,5.69a.783.783,0,0,0,.926.4l3.2-.949V48.735a.789.789,0,0,0,.788.787H26.948a.788.788,0,0,0,.786-.787V29.644l3.2.949a.783.783,0,0,0,.926-.4l2.884-5.69A.79.79,0,0,0,34.79,23.889Z" transform="translate(0)" fill="#5b27c5"/>
  </g>
</svg>
