<svg xmlns="http://www.w3.org/2000/svg" width="38.446" height="22.268" viewBox="0 0 38.446 22.268">
  <g id="digital" transform="translate(11 -54.23)">
    <g id="Layer_26_4_" transform="translate(-11 54.23)">
      <g id="Group_76" data-name="Group 76">
        <path id="Path_99" data-name="Path 99" d="M10.189,57.256V54.23H0V76.5H10.191V75.175a.323.323,0,0,0,0-.135V74.4h0ZM3.332,68.5a.7.7,0,0,1-.715.535.78.78,0,0,1,0-1.559.723.723,0,0,1,.73.58.318.318,0,0,1,.049.2A.329.329,0,0,1,3.332,68.5Zm1.729,4.69A1.442,1.442,0,1,1,6.5,71.744,1.46,1.46,0,0,1,5.061,73.186Zm-.739-5.005a.807.807,0,0,1,.78-.78.721.721,0,0,1,.73.58.307.307,0,0,1,.049.2.318.318,0,0,1-.065.243.7.7,0,0,1-.714.534A.8.8,0,0,1,4.323,68.181Zm4.04.243a.7.7,0,0,1-.714.534.779.779,0,1,1,0-1.557.72.72,0,0,1,.73.58.467.467,0,0,1-.016.443ZM7.934,64.68h-5.6a.6.6,0,0,1,0-1.208h5.6A.6.6,0,0,1,7.934,64.68ZM8,62.5h-5.6a.6.6,0,0,1,0-1.207H8A.6.6,0,0,1,8,62.5Zm0-2.326h-5.6a.6.6,0,0,1,0-1.206H8A.6.6,0,0,1,8,60.173Zm0-2.217h-5.6a.6.6,0,0,1,0-1.207H8A.6.6,0,0,1,8,57.956Z" transform="translate(0 -54.23)" fill="#008509"/>
        <path id="Path_100" data-name="Path 100" d="M104.522,85.843V68.633H77.66v17.21H88.625v1.108H82.892v.913H98.94v-.913H93.332V85.843Zm-24.9-2.535V70.6h22.931v12.71H79.626Z" transform="translate(-66.076 -66.485)" fill="#008509"/>
      </g>
    </g>
  </g>
</svg>
