<svg xmlns="http://www.w3.org/2000/svg" width="29.693" height="29.19" viewBox="0 0 29.693 29.19">
  <g id="glass" transform="translate(-3 -3)">
    <path id="Path_59" data-name="Path 59" d="M52.794,38.059v1.39c0,.214-.013.429-.019.643a2.515,2.515,0,0,1-.485,4.983c-.055,0-.107-.013-.161-.016-.157.663-.346,1.318-.558,1.966a4.575,4.575,0,0,0,.719.063,4.529,4.529,0,0,0,.5-9.029Z" transform="translate(-24.127 -17.415)" fill="#10b8e3"/>
    <path id="Path_60" data-name="Path 60" d="M40.079,35H28v2.929a23.459,23.459,0,0,0,2.327,10.157h7.426a23.465,23.465,0,0,0,2.326-10.157ZM29.007,36.007h1.007v1.007H29.007Zm.9,8.194a22.38,22.38,0,0,1-.9-6.179l1.007,0a21.364,21.364,0,0,0,.861,5.9Z" transform="translate(-12.418 -15.895)" fill="#10b8e3"/>
    <path id="Path_61" data-name="Path 61" d="M12.237,16.736a7.023,7.023,0,0,0,4.855-6.69V3H3v7.046a7.023,7.023,0,0,0,4.855,6.69,2.486,2.486,0,0,1,1.688,2.388v12.06H6.523A1.513,1.513,0,0,0,5.1,32.19h9.893a1.513,1.513,0,0,0-1.424-1.007h-3.02V19.124a2.487,2.487,0,0,1,1.689-2.388ZM15.079,4.007h1.007V5.013H15.079Zm0,6.039V6.02h1.007v4.026a6,6,0,0,1-1.648,4.146l-.731-.692A5,5,0,0,0,15.079,10.046Z" transform="translate(0 0)" fill="#10b8e3"/>
  </g>
</svg>
