<svg xmlns="http://www.w3.org/2000/svg" width="22.674" height="34.288" viewBox="0 0 22.674 34.288">
  <g id="milk-box" transform="translate(-11 -1)">
    <path id="Path_77" data-name="Path 77" d="M44.742,14.189V37.417H37V14.189L40.871,7Z" transform="translate(-11.621 -2.682)" fill="#f3bb20"/>
    <path id="Path_78" data-name="Path 78" d="M20.106,2H31.72a1.106,1.106,0,0,1,1.106,1.106V4.765H19V3.106A1.106,1.106,0,0,1,20.106,2Z" transform="translate(-3.576 -0.447)" fill="#f3bb20"/>
    <path id="Path_79" data-name="Path 79" d="M44.742,58.424,40.871,54,37,58.424Z" transform="translate(-11.621 -23.689)" fill="#f3bb20"/>
    <path id="Path_80" data-name="Path 80" d="M16,22h9.4v7.742H16Z" transform="translate(-2.235 -9.386)" fill="#f3bb20"/>
    <path id="Path_81" data-name="Path 81" d="M27,52h3.318v3.318H27Z" transform="translate(-7.152 -22.796)" fill="#f3bb20"/>
    <g id="Group_59" data-name="Group 59" transform="translate(11 1)">
      <path id="Path_82" data-name="Path 82" d="M33.608,11.245,29.8,4.179V2.659A1.659,1.659,0,0,0,28.144,1H16.53a1.659,1.659,0,0,0-1.659,1.659v1.52l-3.805,7.067a.557.557,0,0,0-.066.262V34.735a.553.553,0,0,0,.553.553H33.121a.553.553,0,0,0,.553-.553V11.508A.557.557,0,0,0,33.608,11.245ZM32.568,32.71l-2.9-3.318a.57.57,0,0,0-.833,0l-2.9,3.318V11.647L29.25,5.485l3.318,6.162Zm-.182,1.472H26.114L29.25,30.6ZM15.977,2.659a.553.553,0,0,1,.553-.553H28.144a.553.553,0,0,1,.553.553V3.765H15.977Zm-3.871,8.988,3.65-6.776H28.324l-3.433,6.374a.557.557,0,0,0-.066.262V34.182H12.106Z" transform="translate(-11 -1)" fill="#f3bb20"/>
      <path id="Path_83" data-name="Path 83" d="M43.553,47a.553.553,0,0,0-.553.553v.553a.553.553,0,1,0,1.106,0v-.553A.553.553,0,0,0,43.553,47Z" transform="translate(-25.303 -21.561)" fill="#f3bb20"/>
      <path id="Path_84" data-name="Path 84" d="M43.553,23a.553.553,0,0,0-.553.553V35.167a.553.553,0,0,0,1.106,0V23.553A.553.553,0,0,0,43.553,23Z" transform="translate(-25.303 -10.833)" fill="#f3bb20"/>
      <path id="Path_85" data-name="Path 85" d="M24.955,21h-9.4a.553.553,0,0,0-.553.553V29.3a.553.553,0,0,0,.553.553h9.4a.553.553,0,0,0,.553-.553V21.553A.553.553,0,0,0,24.955,21ZM24.4,28.742h-8.3V22.106h8.3Z" transform="translate(-12.788 -9.939)" fill="#f3bb20"/>
      <path id="Path_86" data-name="Path 86" d="M26.742,39H19.553a.553.553,0,1,0,0,1.106h7.189a.553.553,0,1,0,0-1.106Z" transform="translate(-14.576 -17.985)" fill="#f3bb20"/>
      <path id="Path_87" data-name="Path 87" d="M24.955,43h-9.4a.553.553,0,0,0,0,1.106h9.4a.553.553,0,0,0,0-1.106Z" transform="translate(-12.788 -19.773)" fill="#f3bb20"/>
      <path id="Path_88" data-name="Path 88" d="M22.189,47.553A.553.553,0,0,0,21.636,47H15.553a.553.553,0,0,0,0,1.106h6.083A.553.553,0,0,0,22.189,47.553Z" transform="translate(-12.788 -21.561)" fill="#f3bb20"/>
      <path id="Path_89" data-name="Path 89" d="M15.553,40.106h.553a.553.553,0,0,0,0-1.106h-.553a.553.553,0,0,0,0,1.106Z" transform="translate(-12.788 -17.985)" fill="#f3bb20"/>
      <path id="Path_90" data-name="Path 90" d="M29.871,51H26.553a.553.553,0,0,0-.553.553v3.318a.553.553,0,0,0,.553.553h3.318a.553.553,0,0,0,.553-.553V51.553A.553.553,0,0,0,29.871,51Zm-.553,3.318H27.106V52.106h2.212Z" transform="translate(-17.705 -23.349)" fill="#f3bb20"/>
    </g>
  </g>
</svg>
