<svg xmlns="http://www.w3.org/2000/svg" width="26.887" height="28.807" viewBox="0 0 26.887 28.807">
  <g id="package" transform="translate(-17.067)">
    <g id="Group_50" data-name="Group 50" transform="translate(35.313 14.884)">
      <g id="Group_49" data-name="Group 49">
        <path id="Path_54" data-name="Path 54" d="M341.35,264.533v.96a1.92,1.92,0,1,0,3.841,0v-.96Z" transform="translate(-341.35 -264.533)" fill="#be6e41"/>
      </g>
    </g>
    <g id="Group_52" data-name="Group 52" transform="translate(29.044 15.23)">
      <g id="Group_51" data-name="Group 51" transform="translate(0)">
        <path id="Path_55" data-name="Path 55" d="M231.4,270.686l-1.468,2.054h.508a.48.48,0,0,1,.48.48v3.361h.96v-3.361a.48.48,0,0,1,.48-.48h.508Z" transform="translate(-229.931 -270.686)" fill="#be6e41"/>
      </g>
    </g>
    <g id="Group_54" data-name="Group 54" transform="translate(21.93 14.884)">
      <g id="Group_53" data-name="Group 53">
        <path id="Path_56" data-name="Path 56" d="M105.352,264.533a1.924,1.924,0,0,0-1.86,1.44h3.72A1.923,1.923,0,0,0,105.352,264.533Z" transform="translate(-103.492 -264.533)" fill="#be6e41"/>
      </g>
    </g>
    <g id="Group_56" data-name="Group 56" transform="translate(27.631)">
      <g id="Group_55" data-name="Group 55">
        <path id="Path_57" data-name="Path 57" d="M204.817,0V9.122l1.152-.864a.48.48,0,0,1,.628.045l1.1,1.1,1.1-1.1a.478.478,0,0,1,.628-.045l1.152.864V0Z" transform="translate(-204.817)" fill="#be6e41"/>
      </g>
    </g>
    <g id="Group_58" data-name="Group 58" transform="translate(17.067)">
      <g id="Group_57" data-name="Group 57" transform="translate(0)">
        <path id="Path_58" data-name="Path 58" d="M43.475,0H34.352V10.083a.481.481,0,0,1-.266.43.486.486,0,0,1-.215.05.479.479,0,0,1-.289-.1L32,9.276,30.85,10.422a.48.48,0,0,1-.679,0L29.025,9.276l-1.588,1.19a.48.48,0,0,1-.768-.384V0H17.547a.48.48,0,0,0-.48.48V28.327a.48.48,0,0,0,.48.48H43.474a.48.48,0,0,0,.48-.48V.48A.479.479,0,0,0,43.475,0ZM23.79,1.92h.96a.48.48,0,1,1,0,.96h-.96a.48.48,0,1,1,0-.96Zm-4.321,0h2.4a.48.48,0,1,1,0,.96h-2.4a.48.48,0,1,1,0-.96Zm2.4,24.966h-2.4a.48.48,0,1,1,0-.96h2.4a.48.48,0,1,1,0,.96Zm2.881,0h-.96a.48.48,0,1,1,0-.96h.96a.48.48,0,1,1,0,.96Zm1.44-9.6H24.27v3.361a1.442,1.442,0,0,1-1.44,1.44.48.48,0,1,1,0-.96.48.48,0,0,0,.48-.48V17.284h-1.92a.48.48,0,0,1-.48-.48,2.883,2.883,0,0,1,2.4-2.838v-.523a.48.48,0,0,1,.96,0v.523a2.883,2.883,0,0,1,2.4,2.838A.48.48,0,0,1,26.19,17.284Zm7.149.7a.48.48,0,0,1-.427.26h-.96v3.361a.48.48,0,0,1-.48.48H29.551a.48.48,0,0,1-.48-.48V18.245h-.96a.48.48,0,0,1-.39-.759l2.4-3.361a.5.5,0,0,1,.781,0l2.4,3.361A.48.48,0,0,1,33.339,17.984ZM36.273,1.92h2.4a.48.48,0,1,1,0,.96h-2.4a.48.48,0,1,1,0-.96Zm2.4,24.966h-2.4a.48.48,0,1,1,0-.96h2.4a.48.48,0,0,1,0,.96Zm0-5.761a.48.48,0,0,1,0,.96H35.793a.48.48,0,1,1,0-.96h.96V18.682a2.883,2.883,0,0,1-2.4-2.838V14.4a.48.48,0,0,1,.48-.48h4.8a.48.48,0,0,1,.48.48v1.44a2.883,2.883,0,0,1-2.4,2.838v2.444Zm2.881,5.761h-.96a.48.48,0,1,1,0-.96h.96a.48.48,0,1,1,0,.96Zm0-24.006h-.96a.48.48,0,1,1,0-.96h.96a.48.48,0,0,1,0,.96Z" transform="translate(-17.067)" fill="#be6e41"/>
      </g>
    </g>
  </g>
</svg>
