<svg xmlns="http://www.w3.org/2000/svg" width="27.567" height="29.171" viewBox="0 0 27.567 29.171">
  <g id="Page-1" transform="translate(-0.539 0)">
    <g id="_016---Bag" data-name="016---Bag" transform="translate(0.539 0)">
      <path id="Shape" d="M4.478,28.652c5.124.513,9.283.518,9.324.518h1.042c.041,0,4.2-.006,9.324-.518a4.133,4.133,0,0,0,3.217-1.672,5.871,5.871,0,0,0,.5-4.433C26.3,17.226,25.239,5.674,24.854.954A1.033,1.033,0,0,0,23.816,0H22.648l0,.08c-.216,7.819-4.468,11.38-8.323,11.38S6.222,7.9,6,.1V0H4.829A1.033,1.033,0,0,0,3.791.954C3.407,5.674,2.342,17.226.757,22.547a5.871,5.871,0,0,0,.5,4.433,4.133,4.133,0,0,0,3.217,1.672ZM23.96,26.579c1.269-.127,1.589-.6,1.694-.76a3.854,3.854,0,0,0,.236-2.677.521.521,0,0,1,1-.3,4.845,4.845,0,0,1-.369,3.556,2.949,2.949,0,0,1-2.456,1.216.442.442,0,0,1-.052,0,.522.522,0,1,1-.052-1.042Zm-22.2-3.735a.521.521,0,0,1,1,.3,3.856,3.856,0,0,0,.236,2.677c.1.156.426.633,1.695.76a.522.522,0,0,1-.052,1.042.442.442,0,0,1-.052,0A2.955,2.955,0,0,1,2.125,26.4a4.856,4.856,0,0,1-.369-3.559Z" transform="translate(-0.539 0)" fill="#a475d2"/>
      <path id="Shape-2" data-name="Shape" d="M21.24,15.385c2.364,0,4.893-1.6,6.263-5.018a8.729,8.729,0,0,1-12.526,0C16.347,13.781,18.876,15.385,21.24,15.385Z" transform="translate(-7.456 -4.967)" fill="#a475d2"/>
    </g>
  </g>
</svg>
