<svg id="power" xmlns="http://www.w3.org/2000/svg" width="68.413" height="68.413" viewBox="0 0 68.413 68.413">
  <g id="Group_11" data-name="Group 11" transform="translate(20.176 12.159)">
    <g id="Group_10" data-name="Group 10">
      <path id="Path_18" data-name="Path 18" d="M179.006,112.586a2,2,0,0,0-1.317-1.441l-9.834-3.278L174.839,93.9a2,2,0,0,0-3.21-2.314l-20.043,20.043a2,2,0,0,0,.783,3.318l9.834,3.278-6.984,13.967a2,2,0,0,0,3.21,2.314l20.043-20.043A2.006,2.006,0,0,0,179.006,112.586Z" transform="translate(-150.998 -90.999)" fill="#27b58e"/>
    </g>
  </g>
  <g id="Group_13" data-name="Group 13" transform="translate(4.009)">
    <g id="Group_12" data-name="Group 12">
      <path id="Path_19" data-name="Path 19" d="M60.2,0A34.452,34.452,0,0,0,34.009,12.364V10.155a2,2,0,0,0-4.009,0v8.514c0,1.913,2.471,2.187,2,2,.041,0,.082,0,.123,0l8.017-.5a2,2,0,1,0-.247-4l-4.061.253A30.167,30.167,0,0,1,90.4,34.207a2,2,0,1,0,4.009,0A34.34,34.34,0,0,0,60.2,0Z" transform="translate(-30)" fill="#27b58e"/>
    </g>
  </g>
  <g id="Group_15" data-name="Group 15" transform="translate(0 32.202)">
    <g id="Group_14" data-name="Group 14">
      <path id="Path_20" data-name="Path 20" d="M62.277,256.541l-8.017.5a2,2,0,0,0-1.877,2.124,2.027,2.027,0,0,0,2.124,1.877l4.061-.253A30.167,30.167,0,0,1,4.009,243,2,2,0,1,0,0,243a34.34,34.34,0,0,0,34.207,34.207A34.452,34.452,0,0,0,60.4,264.847v2.209a2,2,0,0,0,4.009,0v-8.514A2.1,2.1,0,0,0,62.277,256.541Z" transform="translate(0 -241)" fill="#27b58e"/>
    </g>
  </g>
</svg>
