<svg xmlns="http://www.w3.org/2000/svg" width="25.144" height="33.522" viewBox="0 0 25.144 33.522">
  <g id="surface1" transform="translate(-0.25)">
    <path id="Path_51" data-name="Path 51" d="M854,230.005h3.942L854,226.063Zm0,0" transform="translate(-836.989 -221.625)" fill="#047ffb"/>
    <path id="Path_52" data-name="Path 52" d="M15.814,188.332v-5.387H.25v29.93H21.8V188.931H16.412A.6.6,0,0,1,15.814,188.332Zm-11.972-1.8H8.63v1.2H3.842Zm0,7.183h9.578v1.2H3.842Zm0,7.183h4.19v1.2H3.842Zm2.394,8.38H3.842v-1.2H6.236Zm11.972,0H7.433v-1.2H18.208Zm0-3.591H3.842v-1.2H18.208Zm0-3.592H9.229v-1.2h8.979Zm0-3.592H3.842v-1.2H18.208Zm0-3.592H14.616v-1.2h3.592Zm0-3.592H3.842v-1.2H18.208Zm0,0" transform="translate(0 -179.353)" fill="#047ffb"/>
    <path id="Path_53" data-name="Path 53" d="M183.2,0V2.394h12.571c.013,0,.025.007.037.007a.573.573,0,0,1,.155.031.551.551,0,0,1,.055.02.579.579,0,0,1,.176.12l5.986,5.986a.591.591,0,0,1,.12.175.5.5,0,0,1,.02.056.575.575,0,0,1,.031.154c0,.013.008.025.008.038V29.93h2.394V0Zm0,0" transform="translate(-179.353)" fill="#047ffb"/>
  </g>
</svg>
