<svg id="tree" xmlns="http://www.w3.org/2000/svg" width="68.373" height="68.229" viewBox="0 0 68.373 68.229">
  <g id="Group_17" data-name="Group 17" transform="translate(19.524 19.562)">
    <g id="Group_16" data-name="Group 16">
      <path id="Path_21" data-name="Path 21" d="M142.218,134.194a.813.813,0,0,0,1.061-1.022c-1.463-4.51-6.762-6.192-11.687-2.191A20.99,20.99,0,0,1,128,133.544c1.708,1.708,3.659,7.438,7.918,8.072,4.691.851,8.843-3.765,5.446-5.877a14.5,14.5,0,0,0-7.683-2.2A14.544,14.544,0,0,1,142.218,134.194Z" transform="translate(-128.003 -128.724)" fill="#27b58e"/>
    </g>
  </g>
  <g id="Group_19" data-name="Group 19" transform="translate(32.852)">
    <g id="Group_18" data-name="Group 18">
      <path id="Path_22" data-name="Path 22" d="M237.509,22.291c-8.5-6.906-13.924,3.985-10.554,2.905a14.494,14.494,0,0,1,7.636-.342A14.627,14.627,0,0,0,223.31,30.21a93.516,93.516,0,0,1,.958-10.9c2.272-.078,5.3-1.913,6.963-5.123,2.867-5.13,1.537-10.391,1.109-13.71-2.24,2.181-12.025-.375-15.9,6.273a8.557,8.557,0,0,0,.587,9.124A1.1,1.1,0,0,0,219,15.295a10.291,10.291,0,0,1,6.4-9.5,19.725,19.725,0,0,0-3.631,7.724c-.959,4.249-1.961,7.037-2.329,20.581a2.426,2.426,0,0,0,2.449,2.493,2.464,2.464,0,0,0,2.229-1.562,11.046,11.046,0,0,1,3.07-4.166,6.507,6.507,0,0,0,6,2.062c4.24-.631,6.219-6.374,7.918-8.072A20.909,20.909,0,0,1,237.509,22.291Z" transform="translate(-215.38 -0.472)" fill="#27b58e"/>
    </g>
  </g>
  <g id="Group_21" data-name="Group 21" transform="translate(0 36.505)">
    <g id="Group_20" data-name="Group 20">
      <path id="Path_23" data-name="Path 23" d="M67.479,241.993c-2.658-1.8-5.551-.518-6.879.249l-16.672,12.2-9.762,0-2.44-2.44h8.965c2.7,0,5.716-1.756,5.716-4.882,0-3.319-3.02-4.882-5.716-4.882h-3.36c-2.5,0-5.412.223-7.469-.878a14.536,14.536,0,0,0-6.605-1.56,14.1,14.1,0,0,0-10.115,4.143L0,256.885l14.643,14.643,4.881-7.321H42.588a10.048,10.048,0,0,0,6.673-2.536l18.385-16.332A2.137,2.137,0,0,0,67.479,241.993Z" transform="translate(0 -239.804)" fill="#27b58e"/>
    </g>
  </g>
</svg>
