<svg xmlns="http://www.w3.org/2000/svg" width="24.935" height="29.922" viewBox="0 0 24.935 29.922">
  <g id="washing-machine" transform="translate(-16)">
    <path id="Path_101" data-name="Path 101" d="M16,170.494a1.247,1.247,0,0,0,1.247,1.247H39.688a1.247,1.247,0,0,0,1.247-1.247V168H16Z" transform="translate(0 -141.818)" fill="#000591"/>
    <path id="Path_102" data-name="Path 102" d="M39.688,0H17.247A1.247,1.247,0,0,0,16,1.247V24.935H40.935V1.247A1.247,1.247,0,0,0,39.688,0ZM25.974,2.494A1.247,1.247,0,1,1,24.727,3.74,1.247,1.247,0,0,1,25.974,2.494ZM19.74,3.74a1.247,1.247,0,1,1,1.247,1.247A1.247,1.247,0,0,1,19.74,3.74Zm8.727,18.7a7.481,7.481,0,1,1,7.481-7.481A7.481,7.481,0,0,1,28.468,22.442ZM37.195,4.987H32.208V2.494h4.987Z" fill="#000591"/>
    <path id="Path_103" data-name="Path 103" d="M72.963,66a4.987,4.987,0,1,0,0,5.978,3.734,3.734,0,0,1,0-5.978Z" transform="translate(-40.506 -54.024)" fill="#000591"/>
  </g>
</svg>
